<svg xmlns="http://www.w3.org/2000/svg" version="1.1" xmlns:xlink="http://www.w3.org/1999/xlink" viewBox="0 0 200 200"><rect width="200" height="200" fill="url('#gradient')"></rect><defs><linearGradient id="gradient" gradientTransform="rotate(45 0.5 0.5)"><stop offset="0%" stop-color="#0058be"></stop><stop offset="100%" stop-color="#0058be"></stop></linearGradient></defs><g><g fill="#ffffff" transform="matrix(1.4442457288258814,0,0,1.4442457288258814,1.8429714408340345,108.96259897730559)" stroke="#ffffff" stroke-width="0.2"><path d="M12.71-7.60L12.71-1.76Q11.92-0.88 10.40-0.34Q8.88 0.20 7.06 0.20L7.06 0.20Q4.27 0.20 2.60-1.51Q0.93-3.22 0.81-6.27L0.81-6.27L0.80-7.50Q0.80-9.60 1.54-11.17Q2.29-12.73 3.67-13.58Q5.05-14.42 6.87-14.42L6.87-14.42Q9.52-14.42 10.99-13.21Q12.46-11.99 12.71-9.58L12.71-9.58L9.40-9.58Q9.23-10.77 8.64-11.28Q8.06-11.79 6.98-11.79L6.98-11.79Q5.69-11.79 4.99-10.69Q4.29-9.60 4.28-7.57L4.28-7.57L4.28-6.71Q4.28-4.58 5.00-3.51Q5.73-2.44 7.29-2.44L7.29-2.44Q8.63-2.44 9.29-3.04L9.29-3.04L9.29-5.24L6.90-5.24L6.90-7.60L12.71-7.60ZM20.32-4.82L18.13-4.82L18.13 0L14.71 0L14.71-14.22L20.38-14.22Q22.01-14.22 23.27-13.62Q24.52-13.02 25.21-11.91Q25.90-10.80 25.90-9.39L25.90-9.39Q25.90-7.31 24.41-6.07Q22.92-4.82 20.32-4.82L20.32-4.82ZM18.13-11.57L18.13-7.47L20.38-7.47Q21.38-7.47 21.90-7.97Q22.42-8.47 22.42-9.38L22.42-9.38Q22.42-10.37 21.88-10.97Q21.35-11.56 20.42-11.57L20.42-11.57L18.13-11.57ZM44.77-7.47L44.77-6.82Q44.77-4.84 44.11-3.37Q43.46-1.90 42.30-1.02L42.30-1.02L44.60 0.80L42.48 2.60L39.42 0.14Q38.99 0.20 38.56 0.20L38.56 0.20Q36.75 0.20 35.34-0.64Q33.94-1.48 33.15-3.05Q32.36-4.61 32.33-6.64L32.33-6.64L32.33-7.39Q32.33-9.49 33.10-11.08Q33.87-12.68 35.29-13.54Q36.71-14.41 38.54-14.41L38.54-14.41Q40.35-14.41 41.77-13.55Q43.18-12.70 43.97-11.11Q44.76-9.52 44.77-7.47L44.77-7.47ZM41.28-6.76L41.28-7.41Q41.28-9.53 40.57-10.63Q39.86-11.73 38.54-11.73L38.54-11.73Q37.19-11.73 36.50-10.64Q35.82-9.56 35.81-7.47L35.81-7.47L35.81-6.82Q35.81-4.72 36.50-3.60Q37.20-2.48 38.56-2.48L38.56-2.48Q39.87-2.48 40.57-3.58Q41.27-4.69 41.28-6.76L41.28-6.76ZM52.75 0L52.66-1.14Q51.61 0.20 49.83 0.20L49.83 0.20Q48.10 0.20 47.20-0.82Q46.31-1.83 46.31-3.72L46.31-3.72L46.31-10.57L49.60-10.57L49.60-3.70Q49.60-2.34 50.92-2.34L50.92-2.34Q52.05-2.34 52.53-3.15L52.53-3.15L52.53-10.57L55.84-10.57L55.84 0L52.75 0ZM61.11-10.57L61.11 0L57.81 0L57.81-10.57L61.11-10.57ZM57.62-13.29L57.62-13.29Q57.62-13.99 58.13-14.44Q58.63-14.89 59.44-14.89Q60.25-14.89 60.76-14.44Q61.27-13.99 61.27-13.29Q61.27-12.59 60.76-12.14Q60.25-11.69 59.44-11.69Q58.63-11.69 58.13-12.14Q57.62-12.59 57.62-13.29ZM67.61-2.34L67.61-2.34Q68.30-2.34 68.68-2.72Q69.06-3.10 69.05-3.77L69.05-3.77L72.14-3.77Q72.14-2.03 70.89-0.92Q69.65 0.20 67.69 0.20L67.69 0.20Q65.38 0.20 64.05-1.25Q62.72-2.70 62.72-5.25L62.72-5.25L62.72-5.39Q62.72-6.99 63.32-8.22Q63.91-9.44 65.02-10.10Q66.13-10.76 67.66-10.76L67.66-10.76Q69.72-10.76 70.93-9.62Q72.14-8.48 72.14-6.52L72.14-6.52L69.05-6.52Q69.05-7.34 68.65-7.78Q68.25-8.22 67.58-8.22L67.58-8.22Q66.30-8.22 66.08-6.59L66.08-6.59Q66.02-6.07 66.02-5.17L66.02-5.17Q66.02-3.57 66.40-2.96Q66.78-2.34 67.61-2.34ZM80.08 0L77.77-3.94L76.85-3.01L76.85 0L73.55 0L73.55-15.01L76.85-15.01L76.85-7.04L77.18-7.48L79.66-10.57L83.60-10.57L79.90-6.22L83.85 0L80.08 0ZM95.37 0L89.60 0L89.60-14.22L94.71-14.22Q97.45-14.22 98.88-13.21Q100.31-12.21 100.31-10.29L100.31-10.29Q100.31-9.19 99.80-8.41Q99.30-7.63 98.31-7.26L98.31-7.26Q99.42-6.96 100.02-6.16Q100.62-5.36 100.62-4.21L100.62-4.21Q100.62-2.12 99.29-1.07Q97.97-0.02 95.37 0L95.37 0ZM95.43-6.04L93.03-6.04L93.03-2.64L95.27-2.64Q96.20-2.64 96.70-3.06Q97.20-3.49 97.20-4.26L97.20-4.26Q97.20-6.04 95.43-6.04L95.43-6.04ZM93.03-11.57L93.03-8.29L94.81-8.29Q95.94-8.30 96.42-8.70Q96.89-9.10 96.89-9.88L96.89-9.88Q96.89-10.78 96.38-11.18Q95.86-11.57 94.71-11.57L94.71-11.57L93.03-11.57ZM101.94-4.82L101.93-5.38Q101.93-6.96 102.55-8.20Q103.16-9.43 104.32-10.10Q105.47-10.76 107.02-10.76L107.02-10.76Q109.39-10.76 110.76-9.29Q112.13-7.82 112.13-5.29L112.13-5.29L112.13-5.18Q112.13-2.71 110.76-1.25Q109.38 0.20 107.04 0.20L107.04 0.20Q104.79 0.20 103.42-1.16Q102.05-2.51 101.94-4.82L101.94-4.82ZM105.23-5.77L105.22-5.18Q105.22-3.71 105.68-3.03Q106.14-2.34 107.04-2.34L107.04-2.34Q108.80-2.34 108.84-5.05L108.84-5.05L108.84-5.38Q108.84-8.22 107.02-8.22L107.02-8.22Q105.37-8.22 105.23-5.77L105.23-5.77ZM113.17-4.82L113.16-5.38Q113.16-6.96 113.78-8.20Q114.39-9.43 115.55-10.10Q116.70-10.76 118.25-10.76L118.25-10.76Q120.63-10.76 121.99-9.29Q123.36-7.82 123.36-5.29L123.36-5.29L123.36-5.18Q123.36-2.71 121.99-1.25Q120.62 0.20 118.27 0.20L118.27 0.20Q116.02 0.20 114.65-1.16Q113.28-2.51 113.17-4.82L113.17-4.82ZM116.46-5.77L116.46-5.18Q116.46-3.71 116.91-3.03Q117.37-2.34 118.27-2.34L118.27-2.34Q120.03-2.34 120.07-5.05L120.07-5.05L120.07-5.38Q120.07-8.22 118.25-8.22L118.25-8.22Q116.60-8.22 116.46-5.77L116.46-5.77ZM131.36 0L129.05-3.94L128.13-3.01L128.13 0L124.83 0L124.83-15.01L128.13-15.01L128.13-7.04L128.46-7.48L130.94-10.57L134.88-10.57L131.18-6.22L135.13 0L131.36 0Z"></path></g></g></svg>